<?xml version="1.0" encoding="UTF-8"?>
<svg id="Capa_2" data-name="Capa 2" xmlns="http://www.w3.org/2000/svg" viewBox="0 0 267 267">
  <defs>
    <style>
      .cls-1 {
        fill: #00bc6b;
      }

      .cls-2 {
        fill: none;
      }
    </style>
  </defs>
  <g id="Capa_1-2" data-name="Capa 1">
    <g>
      <rect class="cls-2" width="267" height="267"/>
      <g>
        <g>
          <ellipse class="cls-1" cx="156.97" cy="112.4" rx="17.79" ry="14.1" transform="translate(-24 179.65) rotate(-55.99)"/>
          <ellipse class="cls-1" cx="169.93" cy="143.25" rx="17.16" ry="13.63" transform="translate(-52.27 138.63) rotate(-38.94)"/>
        </g>
        <path class="cls-1" d="M149.96,174.26c.12-.27,.22-.53,.32-.8,.07-.2,.14-.4,.2-.61,.13-.38,.25-.78,.35-1.17,.06-.19,.11-.39,.15-.58,.02-.04,.02-.07,.03-.11,.04-.18,.08-.35,.11-.53,.02-.06,.02-.11,.04-.17,3.51-17.79-13.55-42.16-17.46-44.59-.06-.03-.12-.07-.18-.1h-.02s-.05-.03-.05-.03c-3.57-1.65-34.05,.23-45.85,14.39-.16,.17-.3,.35-.44,.53-.14,.19-.29,.37-.43,.57-.24,.33-.48,.67-.69,1.01-.12,.19-.24,.36-.35,.54-.15,.25-.29,.49-.42,.75-.16,.3-.32,.6-.47,.91-4.7,9.84-.53,21.62,9.31,26.32,6.02,2.87,12.77,2.43,18.18-.61,1.04,6.11,4.93,11.64,10.95,14.52,9.84,4.7,21.62,.53,26.32-9.3,.15-.31,.28-.62,.41-.93Z"/>
        <g>
          <ellipse class="cls-1" cx="126.98" cy="98.08" rx="17.79" ry="14.1" transform="translate(-4.02 190.72) rotate(-72.95)"/>
          <ellipse class="cls-1" cx="94.84" cy="107.38" rx="13.63" ry="17.16"/>
        </g>
      </g>
    </g>
  </g>
</svg>