<?xml version="1.0" encoding="UTF-8"?>
<svg id="Capa_2" data-name="Capa 2" xmlns="http://www.w3.org/2000/svg" viewBox="0 0 439.77 105.86">
  <defs>
    <style>
      .cls-1 {
        fill: #00bc6b;
      }
    </style>
  </defs>
  <g id="Capa_1-2" data-name="Capa 1">
    <g>
      <g>
        <g>
          <ellipse class="cls-1" cx="75.76" cy="31.83" rx="17.79" ry="14.1" transform="translate(7 76.83) rotate(-55.99)"/>
          <ellipse class="cls-1" cx="88.73" cy="62.68" rx="17.16" ry="13.63" transform="translate(-19.68 69.69) rotate(-38.94)"/>
        </g>
        <path class="cls-1" d="M68.76,93.68c.12-.27,.22-.53,.32-.8,.07-.2,.14-.4,.2-.61,.13-.38,.25-.78,.35-1.17,.06-.19,.11-.39,.15-.58,.02-.04,.02-.07,.03-.11,.04-.18,.08-.35,.11-.53,.02-.06,.02-.11,.04-.17,3.51-17.79-13.55-42.16-17.46-44.59-.06-.03-.12-.07-.18-.1h-.02s-.05-.03-.05-.03c-3.57-1.65-34.05,.23-45.85,14.39-.16,.17-.3,.35-.44,.53-.14,.19-.29,.37-.43,.57-.24,.33-.48,.67-.69,1.01-.12,.19-.24,.36-.35,.54-.15,.25-.29,.49-.42,.75-.16,.3-.32,.6-.47,.91-4.7,9.84-.53,21.62,9.31,26.32,6.02,2.87,12.77,2.43,18.18-.61,1.04,6.11,4.93,11.64,10.95,14.52,9.84,4.7,21.62,.53,26.32-9.3,.15-.31,.28-.62,.41-.93Z"/>
        <g>
          <ellipse class="cls-1" cx="45.77" cy="17.51" rx="17.79" ry="14.1" transform="translate(15.61 56.13) rotate(-72.95)"/>
          <ellipse class="cls-1" cx="13.63" cy="26.81" rx="13.63" ry="17.16"/>
        </g>
      </g>
      <g>
        <path class="cls-1" d="M139.65,59.76v18.31h-5.68V29.63h13.31c5.18,0,9.19,1.26,12.04,3.78,2.85,2.52,4.27,6.08,4.27,10.67s-1.58,8.36-4.75,11.28-7.44,4.39-12.82,4.39h-6.38Zm0-25v19.87h5.95c3.92,0,6.91-.9,8.97-2.69,2.06-1.79,3.09-4.32,3.09-7.58,0-6.4-3.78-9.59-11.35-9.59h-6.66Z"/>
        <path class="cls-1" d="M194.38,78.07h-5.54v-5.41h-.14c-2.41,4.14-5.96,6.22-10.64,6.22-3.45,0-6.14-.91-8.09-2.74-1.95-1.82-2.92-4.25-2.92-7.26,0-6.46,3.81-10.22,11.42-11.28l10.37-1.45c0-5.88-2.38-8.82-7.13-8.82-4.17,0-7.93,1.42-11.28,4.26v-5.68c3.4-2.16,7.32-3.24,11.76-3.24,8.13,0,12.2,4.3,12.2,12.91v22.5Zm-5.54-17.5l-8.34,1.15c-2.57,.36-4.5,1-5.81,1.91-1.31,.91-1.96,2.53-1.96,4.85,0,1.69,.6,3.07,1.81,4.14,1.21,1.07,2.81,1.6,4.81,1.6,2.75,0,5.02-.96,6.81-2.89,1.79-1.92,2.69-4.36,2.69-7.31v-3.45Z"/>
        <path class="cls-1" d="M248.4,43.48l-10.37,34.59h-5.74l-7.13-24.76c-.27-.95-.45-2.01-.54-3.21h-.14c-.07,.81-.3,1.86-.71,3.14l-7.74,24.83h-5.54l-10.47-34.59h5.81l7.16,26.01c.23,.79,.38,1.82,.47,3.11h.27c.07-.99,.27-2.05,.61-3.18l7.97-25.95h5.07l7.16,26.08c.23,.83,.39,1.87,.51,3.11h.27c.04-.88,.24-1.91,.57-3.11l7.03-26.08h5.47Z"/>
        <path class="cls-1" d="M308.45,78.07h-5.64V45.57c0-2.57,.16-5.71,.47-9.42h-.13c-.54,2.18-1.03,3.75-1.45,4.7l-16.55,37.23h-2.77l-16.52-36.96c-.47-1.08-.96-2.74-1.45-4.97h-.14c.18,1.94,.27,5.1,.27,9.49v32.43h-5.47V29.63h7.5l14.86,33.78c1.15,2.59,1.89,4.53,2.23,5.81h.2c.97-2.66,1.75-4.64,2.33-5.95l15.17-33.65h7.09v48.45Z"/>
        <path class="cls-1" d="M345.21,78.07h-5.54v-5.41h-.14c-2.41,4.14-5.96,6.22-10.64,6.22-3.45,0-6.14-.91-8.09-2.74-1.95-1.82-2.92-4.25-2.92-7.26,0-6.46,3.81-10.22,11.42-11.28l10.37-1.45c0-5.88-2.38-8.82-7.13-8.82-4.17,0-7.93,1.42-11.28,4.26v-5.68c3.4-2.16,7.32-3.24,11.76-3.24,8.13,0,12.2,4.3,12.2,12.91v22.5Zm-5.54-17.5l-8.34,1.15c-2.57,.36-4.5,1-5.81,1.91-1.31,.91-1.96,2.53-1.96,4.85,0,1.69,.6,3.07,1.81,4.14,1.21,1.07,2.81,1.6,4.81,1.6,2.75,0,5.02-.96,6.81-2.89,1.79-1.92,2.69-4.36,2.69-7.31v-3.45Z"/>
        <path class="cls-1" d="M371.69,77.74c-1.31,.72-3.03,1.08-5.17,1.08-6.06,0-9.09-3.38-9.09-10.13v-20.47h-5.95v-4.73h5.95v-8.45l5.54-1.79v10.24h8.72v4.73h-8.72v19.49c0,2.32,.39,3.97,1.18,4.97s2.09,1.49,3.92,1.49c1.4,0,2.6-.38,3.62-1.15v4.73Z"/>
        <path class="cls-1" d="M402.67,76.49c-2.66,1.6-5.81,2.4-9.46,2.4-4.93,0-8.91-1.6-11.94-4.81-3.03-3.21-4.54-7.37-4.54-12.48,0-5.7,1.63-10.28,4.9-13.73s7.62-5.19,13.07-5.19c3.04,0,5.72,.56,8.04,1.69v5.68c-2.57-1.8-5.32-2.7-8.24-2.7-3.54,0-6.44,1.27-8.7,3.8-2.26,2.53-3.4,5.86-3.4,9.98s1.06,7.25,3.19,9.59c2.13,2.34,4.98,3.51,8.56,3.51,3.02,0,5.86-1,8.51-3.01v5.27Z"/>
        <path class="cls-1" d="M439.77,78.07h-5.54v-19.93c0-7.21-2.68-10.81-8.04-10.81-2.7,0-4.98,1.04-6.82,3.12-1.85,2.08-2.77,4.76-2.77,8.02v19.59h-5.54V26.86h5.54v22.37h.13c2.66-4.37,6.44-6.55,11.35-6.55,7.79,0,11.69,4.7,11.69,14.09v21.32Z"/>
      </g>
    </g>
  </g>
</svg>