<?xml version="1.0" encoding="UTF-8"?>
<svg id="Capa_2" data-name="Capa 2" xmlns="http://www.w3.org/2000/svg" viewBox="0 0 51.13 51.13">
  <defs>
    <style>
      .cls-1 {
        fill: #00bc6b;
      }
    </style>
  </defs>
  <g id="Capa_1-2" data-name="Capa 1">
    <g>
      <path class="cls-1" d="M50.56,47.8l-10.9-10.9c3.29-3.91,5.27-8.94,5.27-14.44C44.93,10.08,34.86,0,22.47,0S0,10.08,0,22.47s10.08,22.47,22.47,22.47c5.49,0,10.53-1.98,14.44-5.27l10.9,10.9c.37,.37,.86,.57,1.38,.57s1.01-.2,1.38-.57c.76-.76,.76-2,0-2.76Zm-9.48-25.34c0,10.27-8.35,18.62-18.62,18.62S3.85,32.73,3.85,22.47,12.2,3.85,22.47,3.85s18.62,8.35,18.62,18.62Z"/>
      <g>
        <path class="cls-1" d="M32.27,21.8c1.78-1.53,2.24-3.92,1.02-5.33-1.21-1.41-3.64-1.31-5.42,.22-1.78,1.53-2.24,3.92-1.02,5.33,1.21,1.41,3.64,1.31,5.42-.22Z"/>
        <path class="cls-1" d="M29.81,24.19c-2.07,.91-3.17,2.98-2.45,4.63,.72,1.65,2.99,2.25,5.06,1.34,2.07-.91,3.17-2.98,2.45-4.63-.72-1.65-2.99-2.25-5.06-1.34Z"/>
        <path class="cls-1" d="M23.84,20.81h0s-.01-.01-.01-.01c-.72-.6-7.87-2.09-11.48,.43-.05,.03-.09,.06-.14,.09-.05,.03-.09,.07-.13,.11-.08,.06-.15,.12-.22,.19-.04,.04-.08,.07-.11,.1-.05,.05-.1,.1-.15,.15-.06,.06-.11,.12-.16,.18-1.7,1.97-1.48,4.95,.49,6.66,1.21,1.04,2.79,1.36,4.23,1-.15,1.48,.4,3,1.61,4.04,1.97,1.7,4.95,1.48,6.66-.49,.05-.06,.1-.12,.15-.19,.04-.05,.08-.11,.12-.17,.03-.04,.06-.08,.09-.13,.05-.08,.11-.16,.15-.25,.03-.04,.05-.08,.07-.13,0,0,0-.01,.01-.02,.02-.04,.04-.08,.06-.12,0-.01,.01-.02,.02-.04,1.93-3.88-.47-10.58-1.22-11.38-.01-.01-.02-.02-.03-.03Z"/>
        <path class="cls-1" d="M21.79,17.65c1.57,1,3.87,.19,5.12-1.79,1.26-1.98,1-4.4-.58-5.4-1.57-1-3.87-.19-5.12,1.79s-1,4.4,.57,5.4Z"/>
        <path class="cls-1" d="M14.98,18.14c1.74,.47,3.63-.91,4.22-3.1,.6-2.19-.33-4.34-2.06-4.82-1.74-.47-3.63,.91-4.22,3.1-.6,2.19,.33,4.34,2.06,4.82Z"/>
      </g>
    </g>
  </g>
</svg>