<?xml version="1.0" encoding="UTF-8"?>
<svg id="Capa_2" data-name="Capa 2" xmlns="http://www.w3.org/2000/svg" viewBox="0 0 182.12 69.76">
  <defs>
    <style>
      .cls-1 {
        isolation: isolate;
      }

      .cls-2 {
        fill: #00bc6b;
      }

      .cls-3 {
        fill: #2b2b2b;
      }

      .cls-4 {
        fill: none;
      }
    </style>
  </defs>
  <g id="Capa_1-2" data-name="Capa 1">
    <g>
      <g>
        <g id="PawMatch">
          <g class="cls-1">
            <path class="cls-3" d="M27.81,44.88H14.47c.16,1.82,.71,3.17,1.64,4.05,.93,.88,2.27,1.32,4.01,1.32,2.16,0,4.14-.69,5.93-2.08l1.44,3.45c-.91,.75-2.05,1.35-3.42,1.8-1.38,.45-2.76,.68-4.15,.68-3.2,0-5.74-.91-7.59-2.72-1.86-1.82-2.78-4.3-2.78-7.45,0-2,.4-3.78,1.2-5.33,.8-1.55,1.93-2.75,3.39-3.61,1.46-.85,3.1-1.28,4.95-1.28,2.7,0,4.83,.87,6.39,2.6s2.34,4.13,2.34,7.17v1.4Zm-11.84-6.37c-.82,.85-1.32,2.08-1.5,3.69h9.05c-.05-1.63-.45-2.86-1.2-3.71-.75-.84-1.79-1.26-3.12-1.26s-2.41,.43-3.22,1.28Z"/>
            <path class="cls-3" d="M42.55,43.68l8.25,10.09h-5.93l-5.21-6.53-5.17,6.53h-5.93l8.21-10.09-7.77-9.49h5.97l4.69,5.97,4.69-5.97h5.97l-7.77,9.49Z"/>
            <path class="cls-3" d="M68.69,34.99c1.32,.86,2.35,2.06,3.08,3.63,.73,1.56,1.1,3.36,1.1,5.39s-.37,3.81-1.1,5.33c-.74,1.52-1.76,2.7-3.06,3.53-1.31,.83-2.82,1.24-4.53,1.24-1.39,0-2.63-.29-3.73-.88-1.09-.59-1.94-1.4-2.52-2.44v10.22h-5.01v-26.8h4.93v2.96c.59-1.09,1.44-1.94,2.54-2.54,1.11-.6,2.37-.9,3.79-.9,1.68,0,3.18,.43,4.51,1.28Zm-2.14,13.6c.88-1.08,1.32-2.61,1.32-4.59s-.44-3.61-1.32-4.73c-.88-1.12-2.11-1.68-3.69-1.68s-2.84,.55-3.71,1.64c-.87,1.1-1.3,2.66-1.3,4.69s.43,3.55,1.3,4.65c.87,1.1,2.1,1.64,3.71,1.64s2.8-.54,3.69-1.62Z"/>
            <path class="cls-3" d="M76.2,53.78V25.54h5.01v28.24h-5.01Z"/>
            <path class="cls-3" d="M145.9,37.87l-2.92,.28c-3.31,.35-4.97,2.03-4.97,5.05v10.58h-5.01v-19.59h4.77v3.44c1.01-2.35,3.11-3.63,6.29-3.85l1.52-.12,.32,4.21Z"/>
            <path class="cls-3" d="M165.45,44.88h-13.34c.16,1.82,.71,3.17,1.64,4.05,.93,.88,2.27,1.32,4.01,1.32,2.16,0,4.14-.69,5.93-2.08l1.44,3.45c-.91,.75-2.05,1.35-3.42,1.8-1.38,.45-2.76,.68-4.15,.68-3.2,0-5.74-.91-7.59-2.72-1.86-1.82-2.78-4.3-2.78-7.45,0-2,.4-3.78,1.2-5.33,.8-1.55,1.93-2.75,3.39-3.61,1.46-.85,3.1-1.28,4.95-1.28,2.7,0,4.83,.87,6.39,2.6s2.34,4.13,2.34,7.17v1.4Zm-11.84-6.37c-.82,.85-1.32,2.08-1.5,3.69h9.05c-.05-1.63-.45-2.86-1.2-3.71-.75-.84-1.79-1.26-3.12-1.26s-2.41,.43-3.22,1.28Z"/>
            <path class="cls-3" d="M182.12,37.87l-2.92,.28c-3.31,.35-4.97,2.03-4.97,5.05v10.58h-5.01v-19.59h4.77v3.44c1.01-2.35,3.11-3.63,6.29-3.85l1.52-.12,.32,4.21Z"/>
          </g>
        </g>
        <g>
          <path class="cls-3" d="M15.76,9.62c1.32,.86,2.35,2.06,3.08,3.63,.73,1.56,1.1,3.36,1.1,5.39s-.37,3.81-1.1,5.33c-.74,1.52-1.76,2.7-3.06,3.53-1.31,.83-2.82,1.24-4.53,1.24-1.39,0-2.63-.29-3.73-.88-1.09-.59-1.94-1.4-2.52-2.44v10.22H0V8.82H4.93v2.96c.59-1.09,1.44-1.94,2.54-2.54,1.11-.6,2.37-.9,3.79-.9,1.68,0,3.18,.43,4.51,1.28Zm-2.14,13.6c.88-1.08,1.32-2.61,1.32-4.59s-.44-3.61-1.32-4.73c-.88-1.12-2.11-1.68-3.69-1.68s-2.84,.55-3.71,1.64c-.87,1.1-1.3,2.66-1.3,4.69s.43,3.55,1.3,4.65c.87,1.1,2.1,1.64,3.71,1.64s2.8-.54,3.69-1.62Z"/>
          <path class="cls-3" d="M37.82,10.34c1.33,1.34,2,3.39,2,6.17v11.9h-4.77v-3c-.46,1.04-1.17,1.86-2.14,2.44-.98,.59-2.1,.88-3.38,.88s-2.5-.27-3.57-.8c-1.07-.53-1.91-1.27-2.52-2.2s-.92-1.98-.92-3.12c0-1.44,.37-2.58,1.1-3.41,.73-.83,1.93-1.43,3.58-1.8,1.66-.37,3.94-.56,6.85-.56h1v-.92c0-1.33-.29-2.3-.86-2.88-.58-.59-1.53-.88-2.86-.88-1.04,0-2.13,.18-3.27,.54s-2.25,.86-3.34,1.5l-1.4-3.45c1.09-.69,2.42-1.27,3.97-1.72s3.02-.68,4.41-.68c2.75,0,4.79,.67,6.13,2Zm-4.03,13.44c.84-.89,1.26-2.05,1.26-3.46v-.84h-.72c-1.79,0-3.18,.08-4.17,.24-.99,.16-1.7,.44-2.12,.84-.43,.4-.64,.95-.64,1.64,0,.85,.29,1.56,.88,2.1,.59,.55,1.33,.82,2.24,.82,1.33,0,2.42-.45,3.26-1.34Z"/>
          <path class="cls-3" d="M69.74,8.82h4.89l-7.69,19.59h-4.37l-4.81-12.62-4.69,12.62h-4.33l-7.73-19.59h5.13l5.01,13.62,5.01-13.62h3.61l5.01,13.7,4.97-13.7Z"/>
        </g>
        <g>
          <path class="cls-2" d="M135.25,66.43l-10.9-10.9c3.29-3.91,5.27-8.94,5.27-14.44,0-12.39-10.08-22.47-22.47-22.47s-22.47,10.08-22.47,22.47,10.08,22.47,22.47,22.47c5.49,0,10.53-1.98,14.44-5.27l10.9,10.9c.37,.37,.86,.57,1.38,.57s1.01-.2,1.38-.57c.76-.76,.76-2,0-2.76Zm-9.48-25.34c0,10.27-8.35,18.62-18.62,18.62s-18.62-8.35-18.62-18.62,8.35-18.62,18.62-18.62,18.62,8.35,18.62,18.62Z"/>
          <g>
            <path class="cls-2" d="M116.96,40.43c1.78-1.53,2.24-3.92,1.02-5.33-1.21-1.41-3.64-1.31-5.42,.22-1.78,1.53-2.24,3.92-1.02,5.33,1.21,1.41,3.64,1.31,5.42-.22Z"/>
            <path class="cls-2" d="M114.5,42.82c-2.07,.91-3.17,2.98-2.45,4.63,.72,1.65,2.99,2.25,5.06,1.34,2.07-.91,3.17-2.98,2.45-4.63-.72-1.65-2.99-2.25-5.06-1.34Z"/>
            <path class="cls-2" d="M108.52,39.44h0s-.01-.01-.01-.01c-.72-.6-7.87-2.09-11.48,.43-.05,.03-.09,.06-.14,.09-.05,.03-.09,.07-.13,.11-.08,.06-.15,.12-.22,.19-.04,.04-.08,.07-.11,.1-.05,.05-.1,.1-.15,.15-.06,.06-.11,.12-.16,.18-1.7,1.97-1.48,4.95,.49,6.66,1.21,1.04,2.79,1.36,4.23,1-.15,1.48,.4,3,1.61,4.04,1.97,1.7,4.95,1.48,6.66-.49,.05-.06,.1-.12,.15-.19,.04-.05,.08-.11,.12-.17,.03-.04,.06-.08,.09-.13,.05-.08,.11-.16,.15-.25,.03-.04,.05-.08,.07-.13,0,0,0-.01,.01-.02,.02-.04,.04-.08,.06-.12,0-.01,.01-.02,.02-.04,1.93-3.88-.47-10.58-1.22-11.38-.01-.01-.02-.02-.03-.03Z"/>
            <path class="cls-2" d="M106.47,36.28c1.57,1,3.87,.19,5.12-1.79,1.26-1.98,1-4.4-.58-5.4-1.57-1-3.87-.19-5.12,1.79s-1,4.4,.57,5.4Z"/>
            <path class="cls-2" d="M99.67,36.76c1.74,.47,3.63-.91,4.22-3.1,.6-2.19-.33-4.34-2.06-4.82-1.74-.47-3.63,.91-4.22,3.1-.6,2.19,.33,4.34,2.06,4.82Z"/>
          </g>
        </g>
      </g>
      <rect class="cls-4" width="182.12" height="69.76"/>
    </g>
  </g>
</svg>