<?xml version="1.0" encoding="UTF-8"?>
<svg id="Capa_2" data-name="Capa 2" xmlns="http://www.w3.org/2000/svg" viewBox="0 0 51.04 51.04">
  <defs>
    <style>
      .cls-1 {
        fill: #00bc6b;
      }
    </style>
  </defs>
  <g id="Capa_1-2" data-name="Capa 1">
    <g>
      <path class="cls-1" d="M50.47,47.72l-10.88-10.88c3.28-3.9,5.26-8.93,5.26-14.41C44.85,10.06,34.79,0,22.43,0S0,10.06,0,22.43s10.06,22.43,22.43,22.43c5.48,0,10.51-1.98,14.41-5.26l10.88,10.88c.37,.37,.86,.57,1.38,.57s1.01-.2,1.38-.57c.76-.76,.76-1.99,0-2.75Zm-9.46-25.29c0,10.25-8.34,18.58-18.58,18.58S3.84,32.67,3.84,22.43,12.18,3.84,22.43,3.84s18.58,8.34,18.58,18.58Z"/>
      <path class="cls-1" d="M32.25,22.24c1.89-1.35,2.56-3.65,1.5-5.15s-3.47-1.63-5.36-.28-2.56,3.65-1.5,5.15,3.47,1.63,5.36,.28Z"/>
      <path class="cls-1" d="M29.61,24.37c-2.13,.71-3.4,2.65-2.84,4.33,.56,1.69,2.74,2.49,4.86,1.78s3.4-2.65,2.84-4.33c-.56-1.69-2.74-2.49-4.86-1.78Z"/>
      <path class="cls-1" d="M24.04,20.49s0,0,0,0h0c-.65-.67-7.55-2.79-11.34-.64-.05,.02-.1,.05-.14,.08-.05,.03-.09,.06-.14,.09-.08,.05-.16,.11-.24,.17-.04,.03-.08,.06-.12,.09-.05,.04-.11,.08-.16,.13-.06,.05-.12,.11-.18,.16-1.86,1.79-1.92,4.74-.13,6.6,1.09,1.14,2.62,1.6,4.07,1.38-.28,1.44,.12,2.99,1.22,4.12,1.79,1.86,4.74,1.92,6.6,.13,.06-.06,.11-.11,.17-.17,.05-.05,.09-.1,.14-.15,.03-.04,.06-.08,.1-.12,.06-.07,.12-.15,.18-.23,.03-.04,.06-.08,.08-.12,0,0,.01-.01,.02-.02,.02-.04,.05-.07,.07-.11,0-.01,.01-.02,.02-.03,2.26-3.65,.51-10.46-.15-11.32-.01-.01-.02-.03-.03-.04Z"/>
      <path class="cls-1" d="M22.31,17.19c1.46,1.12,3.79,.55,5.21-1.29s1.39-4.24-.07-5.37c-1.46-1.12-3.79-.55-5.21,1.29s-1.39,4.24,.07,5.37Z"/>
      <path class="cls-1" d="M15.56,17.04c1.67,.63,3.66-.57,4.44-2.66,.79-2.1,.08-4.3-1.59-4.93-1.67-.63-3.66,.57-4.44,2.66s-.08,4.3,1.59,4.93Z"/>
    </g>
  </g>
</svg>