<?xml version="1.0" encoding="UTF-8"?>
<svg id="Capa_2" data-name="Capa 2" xmlns="http://www.w3.org/2000/svg" viewBox="0 0 73.89 73.89">
  <defs>
    <style>
      .cls-1 {
        fill: #fff;
      }
    </style>
  </defs>
  <g id="Capa_1-2" data-name="Capa 1">
    <path class="cls-1" d="M46.14,36.94l25.85-25.85c2.54-2.54,2.54-6.65,0-9.19-2.54-2.54-6.65-2.54-9.19,0l-25.85,25.85L11.1,1.9C8.56-.63,4.44-.63,1.9,1.9-.63,4.44-.63,8.56,1.9,11.1l25.85,25.85L1.9,62.79c-2.54,2.54-2.54,6.65,0,9.19,1.27,1.27,2.93,1.9,4.6,1.9s3.33-.63,4.6-1.9l25.85-25.85,25.85,25.85c1.27,1.27,2.93,1.9,4.6,1.9s3.33-.63,4.6-1.9c2.54-2.54,2.54-6.65,0-9.19l-25.85-25.85Z"/>
  </g>
</svg>