<?xml version="1.0" encoding="UTF-8"?>
<svg id="Capa_2" data-name="Capa 2" xmlns="http://www.w3.org/2000/svg" viewBox="0 0 54.96 54.96">
  <defs>
    <style>
      .cls-1 {
        fill: #00bc6b;
      }

      .cls-2 {
        fill: none;
        opacity: .07;
      }
    </style>
  </defs>
  <g id="Capa_1-2" data-name="Capa 1">
    <g>
      <circle class="cls-2" cx="27.48" cy="27.48" r="27.48"/>
      <path class="cls-1" d="M42.28,37.7l-3.33-3.5c-.82-.86-2.27-.28-2.27,.91v2h-4.1c-1.02,0-1.84-.83-1.84-1.84v-14.34c0-2.67-2.17-4.84-4.84-4.84h-4.44c-.63-1.86-2.37-3.21-4.44-3.21-2.59,0-4.71,2.11-4.71,4.71s2.11,4.71,4.71,4.71c2.07,0,3.81-1.35,4.44-3.21h4.44c1.02,0,1.84,.83,1.84,1.84v14.34c0,2.67,2.17,4.84,4.84,4.84h4.1v2c0,1.19,1.45,1.77,2.27,.91l3.33-3.5c.48-.51,.48-1.3,0-1.81ZM17.02,19.29c-.94,0-1.71-.77-1.71-1.71s.76-1.71,1.71-1.71,1.71,.76,1.71,1.71-.77,1.71-1.71,1.71Z"/>
    </g>
  </g>
</svg>