<?xml version="1.0" encoding="UTF-8"?>
<svg id="Capa_2" data-name="Capa 2" xmlns="http://www.w3.org/2000/svg" viewBox="0 0 54.96 54.96">
  <defs>
    <style>
      .cls-1 {
        fill: #00bc6b;
      }

      .cls-2 {
        fill: none;
        opacity: .07;
      }
    </style>
  </defs>
  <g id="Capa_1-2" data-name="Capa 1">
    <g>
      <path class="cls-1" d="M37.62,25.16c2.65,0,4.81-2.16,4.81-4.81v-3.01c0-2.65-2.16-4.81-4.81-4.81h-3.01c-2.65,0-4.81,2.16-4.81,4.81v.26h-4.64v-.26c0-2.65-2.16-4.81-4.81-4.81h-3.01c-2.65,0-4.81,2.16-4.81,4.81v3.01c0,2.65,2.16,4.81,4.81,4.81h3.01c2.65,0,4.81-2.16,4.81-4.81v-.26h4.64v.26c0,2.65,2.16,4.81,4.81,4.81h.26v4.64h-.26c-2.65,0-4.81,2.16-4.81,4.81v.26h-4.64v-.26c0-2.65-2.16-4.81-4.81-4.81h-3.01c-2.65,0-4.81,2.16-4.81,4.81v3.01c0,2.65,2.16,4.81,4.81,4.81h3.01c2.65,0,4.81-2.16,4.81-4.81v-.26h4.64v.26c0,2.65,2.16,4.81,4.81,4.81h3.01c2.65,0,4.81-2.16,4.81-4.81v-3.01c0-2.65-2.16-4.81-4.81-4.81h-.26v-4.64h.26Zm-15.46-4.81c0,1-.81,1.81-1.81,1.81h-3.01c-1,0-1.81-.81-1.81-1.81v-3.01c0-1,.81-1.81,1.81-1.81h3.01c1,0,1.81,.81,1.81,1.81v3.01Zm0,17.27c0,1-.81,1.81-1.81,1.81h-3.01c-1,0-1.81-.81-1.81-1.81v-3.01c0-1,.81-1.81,1.81-1.81h3.01c1,0,1.81,.81,1.81,1.81v3.01Zm17.27-3.01v3.01c0,1-.81,1.81-1.81,1.81h-3.01c-1,0-1.81-.81-1.81-1.81v-3.01c0-1,.81-1.81,1.81-1.81h3.01c1,0,1.81,.81,1.81,1.81Zm-6.63-14.25v-3.01c0-1,.81-1.81,1.81-1.81h3.01c1,0,1.81,.81,1.81,1.81v3.01c0,1-.81,1.81-1.81,1.81h-3.01c-1,0-1.81-.81-1.81-1.81Z"/>
      <circle class="cls-2" cx="27.48" cy="27.48" r="27.48"/>
    </g>
  </g>
</svg>