<?xml version="1.0" encoding="UTF-8"?>
<svg id="Capa_2" data-name="Capa 2" xmlns="http://www.w3.org/2000/svg" viewBox="0 0 54.96 54.96">
  <defs>
    <style>
      .cls-1 {
        fill: #00bc6b;
      }

      .cls-2 {
        fill: none;
        opacity: .07;
      }
    </style>
  </defs>
  <g id="Capa_1-2" data-name="Capa 1">
    <g>
      <path class="cls-1" d="M37.23,25.25c2.55,0,4.62-2.07,4.62-4.62v-2.89c0-2.55-2.07-4.62-4.62-4.62h-2.89c-2.55,0-4.62,2.07-4.62,4.62v.25h-4.46v-.25c0-2.55-2.07-4.62-4.62-4.62h-2.89c-2.55,0-4.62,2.07-4.62,4.62v2.89c0,2.55,2.07,4.62,4.62,4.62h2.89c2.55,0,4.62-2.07,4.62-4.62v-.25h4.46v.25c0,2.55,2.07,4.62,4.62,4.62h.25v4.46h-.25c-2.55,0-4.62,2.07-4.62,4.62v.25h-4.46v-.25c0-2.55-2.07-4.62-4.62-4.62h-2.89c-2.55,0-4.62,2.07-4.62,4.62v2.9c0,2.55,2.07,4.62,4.62,4.62h2.89c2.55,0,4.62-2.07,4.62-4.62v-.25h4.46v.25c0,2.55,2.07,4.62,4.62,4.62h2.89c2.55,0,4.62-2.07,4.62-4.62v-2.9c0-2.55-2.07-4.62-4.62-4.62h-.25v-4.46h.25Zm-14.86-4.62c0,.96-.78,1.74-1.74,1.74h-2.89c-.96,0-1.74-.78-1.74-1.74v-2.89c0-.96,.78-1.74,1.74-1.74h2.89c.96,0,1.74,.78,1.74,1.74v2.89Zm0,16.59c0,.96-.78,1.74-1.74,1.74h-2.89c-.96,0-1.74-.78-1.74-1.74v-2.9c0-.96,.78-1.74,1.74-1.74h2.89c.96,0,1.74,.78,1.74,1.74v2.9Zm16.59-2.9v2.9c0,.96-.78,1.74-1.74,1.74h-2.89c-.96,0-1.74-.78-1.74-1.74v-2.9c0-.96,.78-1.74,1.74-1.74h2.89c.96,0,1.74,.78,1.74,1.74Zm-6.37-13.7v-2.89c0-.96,.78-1.74,1.74-1.74h2.89c.96,0,1.74,.78,1.74,1.74v2.89c0,.96-.78,1.74-1.74,1.74h-2.89c-.96,0-1.74-.78-1.74-1.74Z"/>
      <circle class="cls-2" cx="27.48" cy="27.48" r="27.48"/>
    </g>
  </g>
</svg>