<?xml version="1.0" encoding="UTF-8"?>
<svg id="Capa_2" data-name="Capa 2" xmlns="http://www.w3.org/2000/svg" viewBox="0 0 171.63 54.2">
  <defs>
    <style>
      .cls-1 {
        isolation: isolate;
      }

      .cls-2 {
        fill: #00bc6b;
      }

      .cls-3 {
        fill: #2b2b2b;
      }

      .cls-4 {
        fill: none;
      }
    </style>
  </defs>
  <g id="Capa_1-2" data-name="Capa 1">
    <g>
      <rect class="cls-4" width="171.63" height="54.2"/>
      <g>
        <g id="PawMatch">
          <g class="cls-1">
            <path class="cls-2" d="M66.87,17.67c1.15,.74,2.04,1.79,2.68,3.15,.64,1.36,.96,2.92,.96,4.68s-.32,3.31-.96,4.63-1.53,2.34-2.66,3.06-2.45,1.08-3.93,1.08c-1.21,0-2.29-.26-3.24-.77-.95-.51-1.68-1.22-2.19-2.12v8.88h-4.35V16.98h4.28v2.58c.51-.95,1.25-1.69,2.21-2.21,.96-.52,2.06-.78,3.29-.78,1.46,0,2.77,.37,3.92,1.11Zm-1.86,11.82c.77-.94,1.15-2.27,1.15-3.99s-.38-3.13-1.15-4.11c-.77-.98-1.83-1.46-3.2-1.46s-2.47,.48-3.22,1.43c-.75,.95-1.13,2.31-1.13,4.07s.38,3.09,1.13,4.04c.75,.95,1.83,1.43,3.22,1.43s2.44-.47,3.2-1.41Z"/>
            <path class="cls-2" d="M88.33,26.27h-11.6c.14,1.58,.62,2.75,1.43,3.52,.81,.77,1.97,1.15,3.48,1.15,1.88,0,3.6-.6,5.15-1.81l1.25,2.99c-.79,.65-1.78,1.17-2.98,1.57-1.2,.39-2.4,.59-3.6,.59-2.79,0-4.99-.79-6.6-2.37-1.61-1.58-2.42-3.74-2.42-6.48,0-1.74,.35-3.28,1.04-4.63s1.68-2.39,2.94-3.13c1.27-.74,2.7-1.11,4.3-1.11,2.34,0,4.2,.75,5.55,2.26,1.36,1.51,2.04,3.59,2.04,6.23v1.22Zm-10.29-5.54c-.71,.74-1.14,1.81-1.31,3.2h7.87c-.05-1.42-.4-2.49-1.04-3.22-.65-.73-1.56-1.1-2.72-1.1s-2.09,.37-2.8,1.11Z"/>
            <path class="cls-2" d="M101.95,30.91l-.21,3.24c-.7,.07-1.34,.1-1.92,.1-2.39,0-4.16-.55-5.29-1.65-1.14-1.1-1.71-2.75-1.71-4.93v-7.42h-3.27v-3.27h3.27v-5.08h4.35v5.08h4.49v3.27h-4.49v7.35c0,2.28,1.06,3.41,3.17,3.41,.51,0,1.04-.03,1.6-.1Z"/>
            <path class="cls-3" d="M118.89,17.67c1.15,.74,2.04,1.79,2.68,3.15,.64,1.36,.96,2.92,.96,4.68s-.32,3.31-.96,4.63-1.53,2.34-2.66,3.06-2.45,1.08-3.93,1.08c-1.21,0-2.29-.26-3.24-.77-.95-.51-1.68-1.22-2.19-2.12v8.88h-4.35V16.98h4.28v2.58c.51-.95,1.25-1.69,2.21-2.21,.96-.52,2.06-.78,3.29-.78,1.46,0,2.77,.37,3.92,1.11Zm-1.86,11.82c.77-.94,1.15-2.27,1.15-3.99s-.38-3.13-1.15-4.11c-.77-.98-1.83-1.46-3.2-1.46s-2.47,.48-3.22,1.43c-.75,.95-1.13,2.31-1.13,4.07s.38,3.09,1.13,4.04c.75,.95,1.83,1.43,3.22,1.43s2.44-.47,3.2-1.41Z"/>
            <path class="cls-3" d="M137.37,18.3c1.16,1.16,1.74,2.95,1.74,5.36v10.34h-4.14v-2.61c-.39,.91-1.02,1.61-1.86,2.12-.85,.51-1.83,.77-2.94,.77s-2.17-.23-3.1-.7-1.66-1.1-2.19-1.92c-.54-.81-.8-1.72-.8-2.72,0-1.25,.32-2.24,.96-2.96s1.68-1.24,3.12-1.57c1.44-.32,3.42-.49,5.96-.49h.87v-.8c0-1.16-.25-2-.75-2.51-.5-.51-1.33-.77-2.49-.77-.91,0-1.85,.16-2.84,.47-.99,.31-1.96,.75-2.91,1.31l-1.22-2.99c.95-.6,2.1-1.1,3.45-1.5,1.35-.39,2.62-.59,3.83-.59,2.39,0,4.17,.58,5.33,1.74Zm-3.5,11.68c.73-.78,1.1-1.78,1.1-3.01v-.73h-.63c-1.56,0-2.76,.07-3.62,.21-.86,.14-1.47,.38-1.85,.73-.37,.35-.56,.82-.56,1.43,0,.74,.25,1.35,.77,1.83,.51,.48,1.16,.71,1.95,.71,1.16,0,2.11-.39,2.84-1.17Z"/>
            <path class="cls-3" d="M153.14,30.91l-.21,3.24c-.7,.07-1.34,.1-1.92,.1-2.39,0-4.16-.55-5.29-1.65-1.14-1.1-1.71-2.75-1.71-4.93v-7.42h-3.27v-3.27h3.27v-5.08h4.35v5.08h4.49v3.27h-4.49v7.35c0,2.28,1.06,3.41,3.17,3.41,.51,0,1.04-.03,1.6-.1Z"/>
            <path class="cls-3" d="M170.14,18.3c1,1.16,1.5,2.91,1.5,5.26v10.45h-4.35v-10.2c0-1.32-.25-2.29-.75-2.89s-1.28-.91-2.35-.91c-1.25,0-2.26,.4-3.01,1.18-.75,.79-1.13,1.85-1.13,3.17v9.65h-4.35V9.45h4.35v9.89c.58-.91,1.35-1.6,2.32-2.07,.96-.48,2.04-.71,3.22-.71,2.04,0,3.56,.58,4.56,1.74Z"/>
          </g>
        </g>
        <g>
          <path class="cls-2" d="M50.47,50.88l-10.88-10.88c3.28-3.9,5.26-8.93,5.26-14.41,0-12.37-10.06-22.43-22.43-22.43S0,13.22,0,25.59s10.06,22.43,22.43,22.43c5.48,0,10.51-1.98,14.41-5.26l10.88,10.88c.37,.37,.86,.57,1.38,.57s1.01-.2,1.38-.57c.76-.76,.76-1.99,0-2.75Zm-9.46-25.29c0,10.25-8.34,18.58-18.58,18.58S3.84,35.83,3.84,25.59,12.18,7.01,22.43,7.01s18.58,8.34,18.58,18.58Z"/>
          <path class="cls-2" d="M32.25,25.4c1.89-1.35,2.56-3.65,1.5-5.15-1.07-1.5-3.47-1.63-5.36-.28-1.89,1.35-2.56,3.65-1.5,5.15s3.47,1.63,5.36,.28Z"/>
          <path class="cls-2" d="M29.61,27.53c-2.13,.71-3.4,2.65-2.84,4.33,.56,1.69,2.74,2.49,4.86,1.78,2.13-.71,3.4-2.65,2.84-4.33-.56-1.69-2.74-2.49-4.86-1.78Z"/>
          <path class="cls-2" d="M24.04,23.65s0,0,0,0h0c-.65-.67-7.55-2.79-11.34-.64-.05,.02-.1,.05-.14,.08-.05,.03-.09,.06-.14,.09-.08,.05-.16,.11-.24,.17-.04,.03-.08,.06-.12,.09-.05,.04-.11,.08-.16,.13-.06,.05-.12,.11-.18,.16-1.86,1.79-1.92,4.74-.13,6.6,1.09,1.14,2.62,1.6,4.07,1.38-.28,1.44,.12,2.99,1.22,4.12,1.79,1.86,4.74,1.92,6.6,.13,.06-.06,.11-.11,.17-.17,.05-.05,.09-.1,.14-.15,.03-.04,.06-.08,.1-.12,.06-.07,.12-.15,.18-.23,.03-.04,.06-.08,.08-.12,0,0,.01-.01,.02-.02,.02-.04,.05-.07,.07-.11,0-.01,.01-.02,.02-.03,2.26-3.65,.51-10.46-.16-11.32-.01-.01-.02-.03-.03-.04Z"/>
          <path class="cls-2" d="M22.31,20.35c1.46,1.12,3.79,.55,5.21-1.29s1.39-4.24-.07-5.37-3.79-.55-5.21,1.29-1.39,4.24,.07,5.37Z"/>
          <path class="cls-2" d="M15.56,20.2c1.67,.63,3.66-.57,4.44-2.66,.79-2.1,.08-4.3-1.59-4.93s-3.66,.57-4.44,2.66c-.79,2.1-.08,4.3,1.59,4.93Z"/>
        </g>
      </g>
    </g>
  </g>
</svg>