<?xml version="1.0" encoding="UTF-8"?>
<svg id="Capa_2" data-name="Capa 2" xmlns="http://www.w3.org/2000/svg" viewBox="0 0 55.24 55.24">
  <defs>
    <style>
      .cls-1 {
        fill: #00bc6b;
      }

      .cls-2 {
        fill: none;
        opacity: .07;
      }
    </style>
  </defs>
  <g id="Capa_1-2" data-name="Capa 1">
    <g>
      <circle class="cls-2" cx="27.62" cy="27.62" r="27.62"/>
      <g>
        <path class="cls-1" d="M41.18,19.15H14.06c-.97,0-1.75-.78-1.75-1.75s.78-1.75,1.75-1.75h27.11c.97,0,1.75,.78,1.75,1.75s-.78,1.75-1.75,1.75Z"/>
        <path class="cls-1" d="M41.18,29.37H14.06c-.97,0-1.75-.78-1.75-1.75s.78-1.75,1.75-1.75h27.11c.97,0,1.75,.78,1.75,1.75s-.78,1.75-1.75,1.75Z"/>
        <path class="cls-1" d="M41.18,39.6H14.06c-.97,0-1.75-.78-1.75-1.75s.78-1.75,1.75-1.75h27.11c.97,0,1.75,.78,1.75,1.75s-.78,1.75-1.75,1.75Z"/>
      </g>
    </g>
  </g>
</svg>